<?xml version="1.0" encoding="UTF-8"?>
<svg version="1.1" viewBox="0 0 1600 688" width="1280" height="1280" xmlns="http://www.w3.org/2000/svg">
<path transform="translate(0)" d="m0 0h1600v688h-1600v-688z" fill="#FCFDFF"/>
<path transform="translate(829 168)" d="m0 0c8.6 7.03 16.2 14.6 22.8 23.5 0.68 0.892 0.68 0.892 1.37 1.8 18.2 24.1 26.7 49.2 33.6 78.2 0.969 0.231 1.94 0.461 2.94 0.699 7.31 1.77 14.6 3.66 21.8 5.86 0.658 0.197 1.32 0.395 1.99 0.598 2.97 0.932 5.41 1.9 8.03 3.62 2.18 1.48 2.18 1.48 4.34 0.754 2.59-2.04 4.23-4.34 6.14-7.03 7.19-9.88 15.1-18.1 24.8-25.5 0.57-0.44 1.14-0.88 1.73-1.33 20.8-16 45-28 71.3-31.7 0.653-0.091 1.31-0.182 1.98-0.276 27.3-3.64 55.7-1.23 81 10.3 0.647 0.292 1.29 0.585 1.96 0.886 37.7 17.3 67.2 47.6 82 86.6 11.1 30.6 11.1 30.6 11.1 40.5 0.669 0.0748 1.34 0.15 2.03 0.227 27.8 3.8 50.4 18.5 67.4 40.3 16.6 22.7 25.7 47.5 25.8 75.8 0.0309 1.61 0.0309 1.61 0.0625 3.25 0.0342 7.03-0.982 12.8-3.31 19.4-0.414 1.4-0.82 2.81-1.22 4.21-8.99 29.9-27.8 52.5-54.8 67.7-14.1 7.55-31.9 13.2-48 13.2-0.682 0.00205-1.36 0.00411-2.07 0.00622-2.28 0.00565-4.57 0.00421-6.85 0.00279-1.65 0.00258-3.31 0.0056-4.96 9e-3 -4.55 0.00806-9.09 0.00986-13.6 0.0106-4.9 0.00185-9.81 0.0094-14.7 0.0161-10.7 0.0136-21.5 0.0196-32.2 0.024-6.7 0.00276-13.4 7e-3 -20.1 0.0115-18.6 0.0122-37.1 0.0225-55.7 0.0259-1.19 2.2e-4 -2.38 4.39e-4 -3.6 6.65e-4 -1.19 2.18e-4 -2.38 4.37e-4 -3.61 6.61e-4 -2.41 4.43e-4 -4.83 8.9e-4 -7.24 0.00134-1.2 2.21e-4 -2.39 4.43e-4 -3.63 6.71e-4 -19.4 0.00394-38.8 0.0214-58.1 0.0447-19.9 0.0237-39.8 0.0362-59.7 0.0373-11.2 9.15e-4 -22.3 0.00662-33.5 0.0248-9.52 0.0154-19 0.0205-28.6 0.0123-4.85-0.00389-9.7-0.00306-14.6 0.0111-4.45 0.0128-8.91 0.0115-13.4-5.91e-4 -1.6-0.00194-3.2 0.00104-4.8 0.00984-28.1 0.145-52.6-7.22-73.8-26.6-12.7-13.4-19.8-32.1-21.9-50.2-0.0577-3.39-0.0577-3.39-1.45-4.58-3.07-0.108-6.12-0.151-9.19-0.151-0.977-0.00423-1.95-0.00846-2.96-0.0128-3.3-0.0131-6.6-0.0191-9.9-0.0251-2.36-0.00794-4.71-0.0163-7.07-0.0251-5.09-0.0181-10.2-0.0331-15.3-0.0458-7.37-0.0185-14.7-0.043-22.1-0.0694-12-0.0428-23.9-0.0819-35.9-0.118-1.08-0.00324-1.08-0.00324-2.17-0.00655-4.36-0.0131-8.72-0.0262-13.1-0.0392-6.52-0.0195-13-0.039-19.6-0.0588-1.07-0.00324-1.07-0.00324-2.16-0.00654-11.9-0.0362-23.8-0.0762-35.7-0.119-7.99-0.0284-16-0.0519-24-0.0719-4.99-0.0134-9.97-0.0308-15-0.0493-2.31-0.00772-4.61-0.0138-6.92-0.0181-30.1-0.0582-52.9-4.14-75.1-26.2-15.9-16.7-21.6-38.8-21.3-61.3 0.721-21.6 11.4-41.5 26.3-56.7 0.687-0.7 1.37-1.4 2.08-2.12 12.5-11.9 28.7-18.2 45.6-20.5 2.32-0.244 2.32-0.244 4.29-1.36 0.636-2.15 1.18-4.32 1.69-6.5 4.41-17.6 12.4-34.6 24.3-48.5 0.712-0.844 1.42-1.69 2.16-2.56 6.98-8.04 14.8-13.6 23.8-19.1 0.755-0.464 1.51-0.928 2.29-1.41 14.4-8.75 31.5-15.7 48.6-14.6 2.69-0.0164 2.69-0.0164 5.12-1.38 4.07-4.95 6.45-11.2 9-17 5.93-12.7 13.4-23.6 23-33.8 1.72-1.86 3.3-3.75 4.88-5.73 6.65-7.81 15.6-13.8 24.1-19.4 0.719-0.478 1.44-0.956 2.18-1.45 55.9-35.3 128-31.2 179 9.94z" fill="#7F2572"/>
<path transform="translate(814 182)" d="m0 0c3.6 3.13 7.04 6.41 10.5 9.72 0.781 0.706 1.56 1.41 2.37 2.14 25.1 23.4 34.4 57.2 39.2 89.9 0.414 2.68 0.905 5.33 1.46 7.99 6.32 2.44 12.4 3.32 19.1 3.88 6.55 0.576 12.7 1.61 18.9 3.56 0.672 0.205 1.34 0.411 2.04 0.623 3.56 1.19 4.75 1.72 6.9 4.94-0.295 5.32-3.3 10.3-7 14-2.01 0.423-2.01 0.423-4.48 0.676-0.909 0.103-1.82 0.205-2.76 0.311-0.974 0.107-1.95 0.215-2.95 0.325-21.7 2.71-42.4 11.7-58.9 26.2-2.88 2.5-2.88 2.5-4.88 2.5-0.255 0.579-0.51 1.16-0.773 1.75-1.35 2.47-2.9 4.16-4.85 6.18-12 13.3-18.7 30.1-24 47-1.22 3.82-2.72 7.44-4.36 11.1-1.2-0.0825-2.39-0.165-3.62-0.25-18.7 0-37.5 11.7-50.4 24.2-0.887 0.804-1.77 1.61-2.69 2.44-8.45 9.36-14.6 20.5-17.8 32.7-0.543 1.86-0.543 1.86-1.54 2.86-3.17 0.103-6.32 0.139-9.49 0.134-1.01 0.00227-2.02 0.00453-3.06 0.00687-3.41 0.00637-6.82 0.00551-10.2 0.00469-2.43 0.00299-4.87 0.00639-7.3 0.0102-5.94 0.00795-11.9 0.0111-17.8 0.0116-4.84 4.75e-4 -9.67 0.00253-14.5 0.0057-13.7 0.00882-27.4 0.0134-41.1 0.0127-0.74-4e-5 -1.48-7.99e-5 -2.24-1.21e-4 -0.741-4.09e-5 -1.48-8.18e-5 -2.25-1.24e-4 -12-4.06e-4 -24 0.00914-36 0.0233-12.3 0.0144-24.6 0.0213-36.9 0.0204-6.91-3.31e-4 -13.8 0.00239-20.7 0.0132-6.51 0.0101-13 0.00974-19.5 0.00248-2.38-0.00104-4.77 0.0013-7.15 0.00736-22.3 0.0531-39.5-1.35-56.7-17.3l-2.11-1.95c-11-11.2-16.7-27-17.3-42.5 0.693-18.9 8.51-34 21.8-47.1 12.9-11.2 29.8-16.1 46.6-15.3 4.21 0.224 4.21 0.224 7.99-1.37 3.73-6.09 4.78-13.7 6.32-20.5 5.08-21.8 16.9-43.7 35.8-56.5 18.6-11.1 36.8-14.8 58.1-17.3 3.83-0.556 5.33-0.834 7.75-3.96 2.19-3.72 3.78-7.42 5.33-11.4 10.3-25.6 25.4-47.6 48.7-63 0.967-0.639 1.93-1.28 2.93-1.94 46.3-29.5 110-31.2 154 5.22z" fill="#FCFDFF"/>
<path transform="translate(829 168)" d="m0 0c8.6 7.03 16.2 14.6 22.8 23.5 0.68 0.892 0.68 0.892 1.37 1.8 18.2 24.1 26.7 49.2 33.6 78.2 0.969 0.231 1.94 0.461 2.94 0.699 7.35 1.78 14.6 3.69 21.9 5.93 1.01 0.309 1.01 0.309 2.04 0.624 3.09 0.973 5.43 1.94 8.14 3.75l-3 12c-1.32 0.33-2.64 0.66-4 1-0.33 2.31-0.66 4.62-1 7l-1.66-0.551c-9.5-3.01-19.3-5.56-29.3-5.45-5.62-0.808-11-2.26-16-5-1.87-3.66-2.47-7.27-3.04-11.3-0.183-1.23-0.365-2.46-0.553-3.73-0.0955-0.646-0.191-1.29-0.289-1.96-5.57-37-22-71-52.3-94.1-27.5-20-63.8-29-97.5-24.1-25.3 4.36-48.6 16.1-68.4 32.2-0.99 0.743-1.98 1.49-3 2.25-15.5 13.1-25.7 33-33.2 51.4-4.38 10.7-4.38 10.7-7.8 14.3-1.96 0.723-1.96 0.723-4.38 1.06-0.972 0.15-1.94 0.299-2.95 0.453-2 0.263-4 0.525-6.01 0.775-25.7 3.23-50.3 10.7-66.9 32-7.53 10.1-13.4 20.6-16.8 32.8l-0.797 2.73c-1.71 6.05-3.09 12.2-4.36 18.3-0.881 3.08-2.01 5.33-3.84 7.95-2.66 1.33-4.95 0.98-7.86 0.883-17.2-0.508-34.2 5.11-47.6 16.2-12.3 12-19.4 28.3-19.9 45.4 0.612 16 6.58 31.7 17.8 43.2 18.8 16.6 36.7 17.6 60.8 17.5 2.45-5.65e-4 4.91-2.46e-4 7.36 8.85e-4 5.27 4.54e-4 10.5-0.00518 15.8-0.0165 7.61-0.0163 15.2-0.0215 22.8-0.024 12.4-0.00437 24.7-0.0176 37.1-0.0366 12-0.0184 24-0.0325 36-0.041 0.741-5.25e-4 1.48-0.00105 2.24-0.00159 3.72-0.00261 7.43-0.00514 11.1-0.00762 30.8-0.0207 61.6-0.056 92.3-0.101 0.267-0.819 0.534-1.64 0.81-2.48 0.354-1.08 0.709-2.15 1.07-3.26 0.525-1.6 0.525-1.6 1.06-3.23 7.47-21.4 23.5-35.9 43.2-46.3 4.16-1.99 8.46-3.44 12.9-4.75 0.67-0.208 1.34-0.415 2.03-0.629 3.64-1.03 6.93-1.47 10.7-1.42 1.2 0.011 1.2 0.011 2.42 0.0222 0.603 0.00943 1.21 0.0189 1.83 0.0286 0.295-0.923 0.295-0.923 0.595-1.86 0.898-2.8 1.81-5.59 2.72-8.39 0.463-1.45 0.463-1.45 0.936-2.93l0.928-2.83c0.278-0.859 0.555-1.72 0.841-2.6 1.02-2.48 2.29-4.31 3.98-6.38 0.66 0.33 1.32 0.66 2 1-0.66 1.65-1.32 3.3-2 5 2.98-0.744 2.98-0.744 4.56-2.56 0.474-0.474 0.949-0.949 1.44-1.44h2c0.66-1.32 1.32-2.64 2-4 3 16.4 3 16.4 3 18 0.99-0.66 1.98-1.32 3-2 1.7-0.464 1.7-0.464 3.44-0.938 3.25-0.97 5.06-1.86 7.56-4.06 0.33 0.99 0.66 1.98 1 3 0.99 0.33 1.98 0.66 3 1v7h-2v6h2v2c-0.99 0.33-1.98 0.66-3 1-0.94 2.51-1.67 4.85-2.31 7.44-0.194 0.694-0.388 1.39-0.588 2.1-0.615 2.24-0.615 2.24-1.1 5.46 0.66 0.66 1.32 1.32 2 2v4h2c0.33 1.65 0.66 3.3 1 5h3c0.99 0.33 1.98 0.66 3 1v2c0.831-0.0116 1.66-0.0232 2.52-0.0352 1.63-0.0135 1.63-0.0135 3.29-0.0273 1.08-0.0116 2.16-0.0232 3.27-0.0352 2.92 0.0977 2.92 0.0977 5.92 1.1 2.54 2.84 4.31 5.62 6 9 0.66 0.33 1.32 0.66 2 1-0.309 1.18-0.309 1.18-0.625 2.38-0.124 0.866-0.247 1.73-0.375 2.62 0.66 0.66 1.32 1.32 2 2h3c1.69 1.38 1.69 1.38 3 3v2h2v2h2v2c0.866 0.371 0.866 0.371 1.75 0.75 2.25 1.25 2.25 1.25 4.06 3.19 2.21 2.33 2.21 2.33 5.88 3.56 1.64 0.742 1.64 0.742 3.31 1.5 0.707 2.09 0.707 2.09 1 4 0.906-0.0464 1.81-0.0928 2.75-0.141 7.74-0.229 13.5 0.153 20.3 4.14v-7c-0.66-0.33-1.32-0.66-2-1v-2c2.31-0.33 4.62-0.66 7-1 0.33-3.3 0.66-6.6 1-10 1.32-0.33 2.64-0.66 4-1v-4h3c0.66 0.66 1.32 1.32 2 2h4c-0.33 2.64-0.66 5.28-1 8-0.99 0.33-1.98 0.66-3 1l0.488 1.72c1.25 5.55 1.15 11.2-1.49 16.3h-3c0.141 2.13 0.288 4.25 0.438 6.38 0.0812 1.18 0.162 2.37 0.246 3.59 0.127 2.95 0.127 2.95 1.32 5.04h-2v5h2v-4c0.99-0.33 1.98-0.66 3-1 0.749 3.66 1.24 6.42 0 10h5c-0.0619-0.949-0.124-1.9-0.188-2.88 0.0619-1.03 0.124-2.06 0.188-3.12 3.2-2.14 4.02-2.23 7.69-2.12 0.808 0.018 1.62 0.0361 2.45 0.0547 0.922 0.0348 0.922 0.0348 1.86 0.0703v2h2c0.247 0.743 0.495 1.48 0.75 2.25 1.4 3.07 2.59 4.68 5.25 6.75 3.14 0.803 3.14 0.803 6 1v-2h2v-2h2c0.936 3.16 1.11 5.97 1.06 9.25-0.00902 0.892-0.018 1.78-0.0273 2.7-0.0174 1.01-0.0174 1.01-0.0352 2.05 1.32 0.66 2.64 1.32 4 2v3h3v2c1.2 0.144 2.39 0.289 3.62 0.438 3.48 0.433 6.92 0.959 10.4 1.56v-7h2v-2c9.4 1.48 9.4 1.48 19 3v5h6v-4c1.65-0.33 3.3-0.66 5-1v2h2c2.3 2.56 3 3.48 3 7 1.44-0.142 2.88-0.289 4.31-0.438 0.801-0.0812 1.6-0.162 2.43-0.246 2.42-0.269 2.42-0.269 5.26-1.32v-3c3.88 0.875 3.88 0.875 5 2 0.66-0.66 1.32-1.32 2-2 2.62 0.375 2.62 0.375 5 1 0.247-0.578 0.495-1.16 0.75-1.75 1.42-2.55 3.13-4.27 5.25-6.25 0.66 0.66 1.32 1.32 2 2h-2c0.33 0.66 0.66 1.32 1 2 2.53-2.36 3.89-3.66 5-7h-14v-2h-8v2h-5c-0.33-0.99-0.66-1.98-1-3-2.02-0.733-2.02-0.733-4-1v-4h-16v-2h-6v-2h-7c1.32-0.33 2.64-0.66 4-1v-7c-1.98-0.33-3.96-0.66-6-1 0.33-0.99 0.66-1.98 1-3h2c-0.33-0.99-0.66-1.98-1-3h4v-2h5c0.33-1.65 0.66-3.3 1-5 0.33 0.66 0.66 1.32 1 2 3.96-0.33 7.92-0.66 12-1 0.33-2.97 0.66-5.94 1-9h1c0.33 2.97 0.66 5.94 1 9 3.96 1.48 3.96 1.48 8 3v-2c0.99 0.33 1.98 0.66 3 1 2.33 0.0395 4.67 0.044 7 0v-1h-6c-0.33-0.66-0.66-1.32-1-2 1.11-0.227 2.23-0.454 3.38-0.688 3.79-0.919 3.79-0.919 5.06-3.94 0.186-0.784 0.371-1.57 0.562-2.38h3c0.33 0.33 0.66 0.66 1 1 0.99-0.33 1.98-0.66 3-1 0.66 0.99 1.32 1.98 2 3 0.309-0.639 0.619-1.28 0.938-1.94 1.06-2.06 1.06-2.06 2.06-3.06v-2h-2v-2h-2v-2h-7c-0.33-2.64-0.66-5.28-1-8-2.97 1.84-2.97 1.84-5 4-2.16 0.195-2.16 0.195-4.62 0.125-0.817-0.018-1.63-0.0361-2.48-0.0547-0.94-0.0348-0.94-0.0348-1.9-0.0703 0.33-0.99 0.66-1.98 1-3 2.31-0.33 4.62-0.66 7-1-1.07-1.3-1.07-1.3-3.56-1.06-0.804 0.0206-1.61 0.0412-2.44 0.0625 0.66-1.32 1.32-2.64 2-4h2c0.124-0.742 0.247-1.48 0.375-2.25 0.949-4.18 2.39-6.92 5.62-9.75 0.66-0.33 1.32-0.66 2-1 1.05-2.31 2.04-4.65 3-7 0.667-1.33 1.33-2.67 2-4 1.1-2.65 2.09-5.28 3-8h6v-3c3.15-2.1 4.29-2.28 7.94-2.5 3.57-0.215 5.95-0.749 9.06-2.5 5.17-2.23 8.58-1.93 14-1 0.33 0.99 0.66 1.98 1 3 0.99-0.33 1.98-0.66 3-1 2.44-0.0625 2.44-0.0625 5 1 2.79 3.95 4 7.15 4 12 1.32 0.33 2.64 0.66 4 1v2c3.3 0.33 6.6 0.66 10 1v-5h-6v-2h2v-6h-2c-0.33-1.98-0.66-3.96-1-6h-3v-4h2c0.33-1.32 0.66-2.64 1-4h6c0.206 0.639 0.412 1.28 0.625 1.94 1.27 2.41 1.27 2.41 4.5 2.81 0.949 0.0825 1.9 0.165 2.88 0.25 0.33 0.99 0.66 1.98 1 3h2v3c0.66 0.33 1.32 0.66 2 1h-4v12h-4c0.33 1.32 0.66 2.64 1 4h2c0.699 1.6 1.38 3.2 2.06 4.81 0.383 0.893 0.766 1.79 1.16 2.71 0.777 2.48 0.777 2.48-0.223 5.48-0.561 6.27-0.0453 10.4 3 16 0.188 3.38 0.188 3.38 0 6h3c0.33-0.66 0.66-1.32 1-2 0.66 0.969 1.32 1.94 2 2.94 2.25 2.75 3.79 3.53 7.31 3.94 1.22 0.0412 2.43 0.0825 3.69 0.125v-6h2v-8c5.05-1.04 9.87-1.1 15-1 0.33 0.99 0.66 1.98 1 3 2 1.21 2 1.21 4 2v2c0.577 0.144 1.16 0.289 1.75 0.438l6.25 1.56v6h2v4h2c2.26 3.56 2.07 6.13 1.62 10.2l-0.336 3.27c-0.0954 0.82-0.191 1.64-0.289 2.48h2v2c1.92 0.223 3.83 0.428 5.75 0.625 1.6 0.174 1.6 0.174 3.23 0.352 3.05 0.0237 4.48-0.362 7.02-1.98v-4h2v-2h2v-4c0.99 0.33 1.98 0.66 3 1-0.66 1.65-1.32 3.3-2 5h2v-2h2v-4h3v-5h5v-8c-1.89 0.0928-1.89 0.0928-3.81 0.188-2.67-0.00948-3.9-0.0231-6.25-1.38-0.938-1.81-0.938-1.81 0.0625-6.81h11v-2h2v2h3v-2c1.32-0.33 2.64-0.66 4-1v-2c0.773 0.371 0.773 0.371 1.56 0.75 4.63 0.475 8.71-3.26 12.4-5.75h3c-0.66-0.66-1.32-1.32-2-2h2c0.33-0.99 0.66-1.98 1-3h5v2h4v2h3.18 16.8c-0.33 1.32-0.66 2.64-1 4h-2c-0.33 2.64-0.66 5.28-1 8h2c0.0812-0.746 0.162-1.49 0.246-2.26 0.922-3.35 2.15-4.39 4.82-6.55 0.733-0.605 1.47-1.21 2.22-1.83 0.566-0.447 1.13-0.895 1.71-1.36 3.72 6.4 2.06 14 1 21v3.69c0 2.79-0.297 4.68-1 7.31-0.0379 1.67-0.0463 3.33 0 5-0.619 0.248-1.24 0.495-1.88 0.75-3.04 1.79-3.78 4.03-4.72 7.36-0.976 4.62-1.8 9.2-2.4 13.9-0.99 0.33-1.98 0.66-3 1-0.33-0.66-0.66-1.32-1-2h-5v3c-2.64 0.33-5.28 0.66-8 1-0.33-0.99-0.66-1.98-1-3-0.577 0.619-1.16 1.24-1.75 1.88-2.05 1.94-3.68 3.03-6.25 4.12v1h6v-2c1.32 0.33 2.64 0.66 4 1-0.782 2.79-1.62 5.44-3 8-2.69 1-2.69 1-5 1v2.38c0 4.78-0.282 7.55-3 11.6 2.92-1.07 4.78-1.78 7-4 3.12 0.375 3.12 0.375 6 1-0.33-1.32-0.66-2.64-1-4 1.32-0.33 2.64-0.66 4-1v-2c1.32-0.33 2.64-0.66 4-1-0.33 0.99-0.66 1.98-1 3h3c-1.33 3.98-3.91 5.65-7.12 8.12-0.628 0.485-1.26 0.97-1.9 1.47-9.48 7.19-19.1 13-30.3 17.2-1.05 0.399-1.05 0.399-2.11 0.806-14.1 5.01-28 6.98-42.9 6.88-1.67 0.00391-3.33 0.00956-5 0.0168-4.52 0.0146-9.04 0.00467-13.6-0.00974-4.9-0.0112-9.79 8.61e-4 -14.7 0.00984-9.57 0.0139-19.1 0.00642-28.7-0.00868-11.2-0.0169-22.3-0.0136-33.5-0.00991-19.9 0.00587-39.9-0.00825-59.8-0.0329-19.3-0.0239-38.6-0.031-57.9-0.0205-21.1 0.0114-42.1 0.0133-63.2-0.0011-2.25-0.00153-4.5-0.00305-6.75-0.00456-1.11-7.58e-4 -2.21-0.00152-3.35-0.0023-7.77-0.00473-15.5-0.0029-23.3 0.00136-9.47 0.00494-18.9-0.00114-28.4-0.0209-4.83-0.00982-9.65-0.015-14.5-0.00711-4.43 0.00713-8.86 8.89e-5 -13.3-0.0176-1.59-4e-3 -3.18-0.00312-4.77 0.00352-28.1 0.107-52.6-7.26-73.7-26.6-12.7-13.4-19.8-32.1-21.9-50.2-0.0577-3.39-0.0577-3.39-1.45-4.58-3.07-0.108-6.12-0.151-9.19-0.151-0.977-0.00423-1.95-0.00846-2.96-0.0128-3.3-0.0131-6.6-0.0191-9.9-0.0251-2.36-0.00794-4.71-0.0163-7.07-0.0251-5.09-0.0181-10.2-0.0331-15.3-0.0458-7.37-0.0185-14.7-0.043-22.1-0.0694-12-0.0428-23.9-0.0819-35.9-0.118-1.08-0.00324-1.08-0.00324-2.17-0.00655-4.36-0.0131-8.72-0.0262-13.1-0.0392-6.52-0.0195-13-0.039-19.6-0.0588-1.07-0.00324-1.07-0.00324-2.16-0.00654-11.9-0.0362-23.8-0.0762-35.7-0.119-7.99-0.0284-16-0.0519-24-0.0719-4.99-0.0134-9.97-0.0308-15-0.0493-2.31-0.00772-4.61-0.0138-6.92-0.0181-30.1-0.0582-52.9-4.14-75.1-26.2-15.9-16.7-21.6-38.8-21.3-61.3 0.721-21.6 11.4-41.5 26.3-56.7 0.687-0.7 1.37-1.4 2.08-2.12 12.5-11.9 28.7-18.2 45.6-20.5 2.32-0.244 2.32-0.244 4.29-1.36 0.636-2.15 1.18-4.32 1.69-6.5 4.41-17.6 12.4-34.6 24.3-48.5 0.712-0.844 1.42-1.69 2.16-2.56 6.98-8.04 14.8-13.6 23.8-19.1 0.755-0.464 1.51-0.928 2.29-1.41 14.4-8.75 31.5-15.7 48.6-14.6 2.69-0.0164 2.69-0.0164 5.12-1.38 4.07-4.95 6.45-11.2 9-17 5.93-12.7 13.4-23.6 23-33.8 1.72-1.86 3.3-3.75 4.88-5.73 6.65-7.81 15.6-13.8 24.1-19.4 0.719-0.478 1.44-0.956 2.18-1.45 55.9-35.3 128-31.2 179 9.94z" fill="#7F2270"/>
<path transform="translate(829 168)" d="m0 0c8.6 7.03 16.2 14.6 22.8 23.5 0.68 0.892 0.68 0.892 1.37 1.8 18.2 24.1 26.7 49.2 33.6 78.2 0.969 0.231 1.94 0.461 2.94 0.699 7.35 1.78 14.6 3.69 21.9 5.93 1.01 0.309 1.01 0.309 2.04 0.624 3.09 0.973 5.43 1.94 8.14 3.75l-3 12c-1.32 0.33-2.64 0.66-4 1-0.33 2.31-0.66 4.62-1 7l-1.66-0.551c-9.5-3.01-19.3-5.56-29.3-5.45-5.62-0.808-11-2.26-16-5-1.87-3.66-2.47-7.27-3.04-11.3-0.183-1.23-0.365-2.46-0.553-3.73-0.0955-0.646-0.191-1.29-0.289-1.96-5.57-37-22-71-52.3-94.1-27.5-20-63.8-29-97.5-24.1-25.3 4.36-48.6 16.1-68.4 32.2-0.99 0.743-1.98 1.49-3 2.25-15.5 13.1-25.7 33-33.2 51.4-4.38 10.7-4.38 10.7-7.8 14.3-1.96 0.723-1.96 0.723-4.38 1.06-0.972 0.15-1.94 0.299-2.95 0.453-2 0.263-4 0.525-6.01 0.775-25.7 3.23-50.3 10.7-66.9 32-7.53 10.1-13.4 20.6-16.8 32.8l-0.797 2.73c-1.71 6.05-3.09 12.2-4.36 18.3-0.881 3.08-2.01 5.33-3.84 7.95-2.66 1.33-4.95 0.98-7.86 0.883-17.2-0.508-34.2 5.11-47.6 16.2-12.3 12-19.4 28.3-19.9 45.4 0.612 16 6.58 31.7 17.8 43.2 18.6 16.4 36.4 17.5 60.3 17.5 2.41 0.00111 4.82 0.00317 7.23 0.0061 5.17 0.00471 10.3 0.00362 15.5-0.00178 8.17-0.00825 16.3 0.00305 24.5 0.0172 2.8 0.0046 5.6 0.00905 8.4 0.0134 1.05 0.00165 1.05 0.00165 2.12 0.00333 7.94 0.0121 15.9 0.0197 23.8 0.0257 0.725 5.48e-4 1.45 0.0011 2.2 0.00166 11.8 0.00848 23.6 0.00511 35.3-8.15e-4 12.1-0.00561 24.2 0.00789 36.3 0.0376 7.46 0.0175 14.9 0.0192 22.4 3.55e-4 5.71-0.013 11.4-1.13e-4 17.1 0.0224 2.34 0.00506 4.69 0.00152 7.03-0.0111 3.19-0.016 6.38-0.00155 9.57 0.0207 0.933-0.012 1.87-0.0241 2.83-0.0365 6.22 0.0889 6.22 0.0889 9.54 3.01 0.439 0.874 0.879 1.75 1.33 2.65-0.33 0.99-0.66 1.98-1 3-0.33-0.33-0.66-0.66-1-1 0.143 1.16 0.143 1.16 0.289 2.34 0.111 1 0.222 2.01 0.336 3.04 0.174 1.5 0.174 1.5 0.352 3.02 0.00773 0.859 0.0155 1.72 0.0234 2.6-3.28 3.28-4.66 3.12-9.41 3.13-1.4-0.00335-1.4-0.00335-2.82-0.00676-0.981 0.00156-1.96 0.00312-2.97 0.00473-3.31 0.00401-6.63 8.18e-4 -9.94-0.00232-2.36 0.00135-4.73 0.00313-7.09 0.00531-5.78 0.0041-11.6 0.00348-17.3 5.87e-4 -4.7-0.00226-9.4-0.00257-14.1-0.00148-1 2.3e-4 -1 2.3e-4 -2.02 4.64e-4 -1.36 3.2e-4 -2.71 6.44e-4 -4.07 9.73e-4 -12.7 0.00286-25.5-4.33e-4 -38.2-0.0058-10.9-0.00446-21.8-0.0037-32.8 9.19e-4 -12.7 0.00536-25.4 0.00745-38 0.00439-1.36-3.19e-4 -2.71-6.33e-4 -4.07-9.43e-4 -0.667-1.54e-4 -1.33-3.09e-4 -2.02-4.68e-4 -4.68-8.61e-4 -9.37 6.38e-4 -14.1 0.00295-6.32 0.0029-12.6 8.66e-4 -19-0.00489-2.32-0.00132-4.63-9.51e-4 -6.95 0.00126-30.2 0.0262-52.9-4.07-75.1-26.1-15.9-16.7-21.6-38.8-21.3-61.3 0.721-21.6 11.4-41.5 26.3-56.7 0.687-0.7 1.37-1.4 2.08-2.12 12.5-11.9 28.7-18.2 45.6-20.5 2.32-0.244 2.32-0.244 4.29-1.36 0.636-2.15 1.18-4.32 1.69-6.5 4.41-17.6 12.4-34.6 24.3-48.5 0.712-0.844 1.42-1.69 2.16-2.56 6.98-8.04 14.8-13.6 23.8-19.1 0.755-0.464 1.51-0.928 2.29-1.41 14.4-8.75 31.5-15.7 48.6-14.6 2.69-0.0164 2.69-0.0164 5.12-1.38 4.07-4.95 6.45-11.2 9-17 5.93-12.7 13.4-23.6 23-33.8 1.72-1.86 3.3-3.75 4.88-5.73 6.65-7.81 15.6-13.8 24.1-19.4 0.719-0.478 1.44-0.956 2.18-1.45 55.9-35.3 128-31.2 179 9.94z" fill="#88217C"/>
<path transform="translate(1164,482)" d="m0 0c3.12-0.188 3.12-0.188 6 0v2h3c-0.33 2.97-0.66 5.94-1 9-4.45 0.495-4.45 0.495-9 1-0.925 3.7-1.08 4.63 0 8h6c2.36 4.57 2.42 8.97 2 14-0.33 0.66-0.66 1.32-1 2-0.07 1.71-0.0844 3.42-0.0625 5.12 0.00902 0.91 0.018 1.82 0.0273 2.76 0.0116 0.699 0.0232 1.4 0.0352 2.12h-2v4h3v4c0.66 0.33 1.32 0.66 2 1h-2v2c-1.79 0.222-3.58 0.427-5.38 0.625-0.998 0.116-2 0.232-3.02 0.352-1.29 0.0116-1.29 0.0116-2.6 0.0234-0.66-0.66-1.32-1.32-2-2-2.32-0.4-4.66-0.74-7-1 0.33-4.62 0.66-9.24 1-14h-2v4h-8v-6h8v-4h2c-0.267-1.98-0.267-1.98-1-4-0.99-0.33-1.98-0.66-3-1 0.33-1.65 0.66-3.3 1-5 1.65-0.33 3.3-0.66 5-1 0.784-3.6 1.25-7.14 1.56-10.8 0.0838-0.976 0.168-1.95 0.254-2.96 0.0606-0.736 0.121-1.47 0.184-2.23h5c0.124-0.763 0.247-1.53 0.375-2.31 0.625-2.69 0.625-2.69 2.62-5.69z" fill="#7F2571"/>
<path transform="translate(1103,227)" d="m0 0 2 1c0.88-0.213 1.76-0.425 2.67-0.645 4.31-0.459 6.97 0.96 10.6 2.96 0.689 0.361 1.38 0.722 2.09 1.09 2.21 1.17 4.41 2.38 6.6 3.59 0.733 0.403 1.47 0.805 2.22 1.22 9.3 5.14 17.9 10.6 25.8 17.8 0.877 0.795 1.75 1.59 2.66 2.41 5.74 5.46 10.7 11.3 15.5 17.6 0.577 0.743 1.15 1.49 1.75 2.25 0.795 1.05 0.795 1.05 1.61 2.12 0.475 0.626 0.949 1.25 1.44 1.9 1.02 1.73 1.02 1.73 1.02 4.73-2.31-0.188-2.31-0.188-5-1-3-4.03-3-4.03-3-7-1.48-0.495-1.48-0.495-3-1-0.701-0.825-1.4-1.65-2.12-2.5-3.07-2.67-3.42-2.76-7.19-2.88-5.9-0.342-8.62-3.68-12.7-7.62-1.35-1.11-2.73-2.19-4.12-3.25-0.601-0.459-1.2-0.918-1.82-1.39-2.13-1.47-2.13-1.47-4.93-2.75-3.35-1.73-6.03-3.72-8.93-6.11-0.955-0.773-1.91-1.55-2.89-2.34-2.29-2.16-2.29-2.16-3.29-5.16h-3c-0.33-1.32-0.66-2.64-1-4-0.99 0.495-0.99 0.495-2 1-2.36-0.936-4.7-1.93-7-3 0.66-1.32 1.32-2.64 2-4-0.66-0.66-1.32-1.32-2-2-0.33 0.66-0.66 1.32-1 2-0.99-0.33-1.98-0.66-3-1v-4z" fill="#88217C"/>
<path transform="translate(1050,407)" d="m0 0h5v3h-2c-0.33 1.32-0.66 2.64-1 4h-3c-0.0825 0.577-0.165 1.15-0.25 1.75-1.01 3.03-2.24 4.27-4.75 6.25-3.75 1.25-3.75 1.25-7 2v2c-2.64 0.66-5.28 1.32-8 2v2h-2v2h-2v2c-4.4 4.75-8.97 7.66-15 10-0.969 0.722-1.94 1.44-2.94 2.19-4.07 2.41-6.4 2.21-11.1 1.81-0.33-0.33-0.66-0.66-1-1-2.53-0.0731-5.03-0.0925-7.56-0.0625-0.711 0.00451-1.42 0.00902-2.15 0.0137-1.76 0.0118-3.52 0.0298-5.28 0.0488 0.33-3.63 0.66-7.26 1-11h4v2h8c-0.33 0.66-0.66 1.32-1 2-2.32 0.407-4.66 0.744-7 1v2h11c0.33-1.32 0.66-2.64 1-4 3.54-1.79 7.21-2.78 11-4-3.96 0.33-7.92 0.66-12 1v-2c0.762-0.231 1.52-0.461 2.31-0.699 5.96-1.88 11.4-3.95 16.8-7.15 1.94-1.15 3.91-2.16 5.94-3.15v-2c6.5-3 6.5-3 11-3 0.268-0.619 0.536-1.24 0.812-1.88 1.19-2.12 1.19-2.12 4.19-4.12-0.33 1.32-0.66 2.64-1 4h-2c-0.206 0.619-0.412 1.24-0.625 1.88-1.92 2.96-4.08 3.1-7.38 4.12-0.66 0.99-1.32 1.98-2 3 0.763-0.33 1.53-0.66 2.31-1 2.69-1 2.69-1 5.69-1 0.247-0.577 0.495-1.15 0.75-1.75 2.08-3.74 4.18-5.89 8.25-7.25 1.22-2.5 1.22-2.5 2-5h7v-2z" fill="#7F2270"/>
<path transform="translate(1216,358)" d="m0 0c5.11 0.573 9.68 1.72 14.5 3.56 0.689 0.262 1.38 0.525 2.09 0.795 16.2 6.38 29.1 15.2 40.4 28.6 0.75 0.877 1.5 1.75 2.27 2.66 1.73 2.34 1.73 2.34 1.48 4.66-0.247 0.557-0.495 1.11-0.75 1.69-1.14-0.278-1.14-0.278-2.31-0.562-2.78-0.666-2.78-0.666-5.69 0.562-2.19-0.938-2.19-0.938-4-2v-2c-0.99-0.33-1.98-0.66-3-1v-4c-0.565-0.0941-1.13-0.188-1.71-0.285-2.84-0.887-4.6-2.29-6.91-4.15-0.776-0.617-1.55-1.23-2.35-1.87-2.02-1.69-2.02-1.69-4.02-3.69-1.05-0.371-2.1-0.743-3.19-1.12-5.03-1.79-9.61-4.35-14.3-6.92-3.08-1.69-6.12-3.22-9.38-4.52-3.16-1.44-3.16-1.44-5.16-4.44 0.346-2.28 0.967-3.93 2-6z" fill="#88217C"/>
<path transform="translate(618,188)" d="m0 0v3c0.124 1.11 0.124 1.11 0.25 2.25-0.292 3.21-1.55 5.2-3.23 7.9-1.57 2.84-2.25 5.71-3.02 8.85-0.598 0.0412-1.2 0.0825-1.81 0.125-2.48 0.745-2.48 0.745-3.94 3.62-1.18 3.08-1.54 5-1.25 8.25-1.49 0.495-1.49 0.495-3 1-0.806 2.11-0.806 2.11-1.19 4.56-0.238 1.24-0.238 1.24-0.48 2.5-0.11 0.638-0.219 1.28-0.332 1.93-4.75 1.12-4.75 1.12-7 0v2h-2c0.507-5.4 1.93-9.62 4.44-14.4 0.348-0.682 0.697-1.36 1.06-2.07 13.8-26.5 13.8-26.5 21.5-29.5z" fill="#7F2572"/>
<path transform="translate(419,363)" d="m0 0h2c1.15 3.57 1.01 6.71 0.75 10.4-0.067 1.11-0.134 2.22-0.203 3.37-0.582 3.4-1.64 5.36-3.55 8.19-0.309 0.804-0.619 1.61-0.938 2.44-1.76 4.25-3.42 7.84-7.75 9.75-0.763 0.268-1.53 0.536-2.31 0.812-0.33 0.99-0.66 1.98-1 3h-2c-0.33 0.66-0.66 1.32-1 2-2.46-6.83 1.98-14.9 4.88-21.2 0.68-1.41 1.37-2.81 2.06-4.21 0.323-0.653 0.647-1.31 0.98-1.98 2.32-4.53 4.94-8.64 8.08-12.6z" fill="#7F2270"/>
<path transform="translate(505,275)" d="m0 0h2c-0.506 2.17-1 4-2 6h-2c-0.66 1.98-1.32 3.96-2 6 0.66-0.33 1.32-0.66 2-1-0.33 0.99-0.66 1.98-1 3h-2c0.34 1.58 0.34 1.58 0.688 3.19 0.344 4.19-0.065 5.61-2.69 8.81h-2c-0.33 2.31-0.66 4.62-1 7h-2c0.103 0.928 0.206 1.86 0.312 2.81-0.103 1.05-0.206 2.1-0.312 3.19-2.5 1.88-2.5 1.88-5 3-0.33-0.33-0.66-0.66-1-1-0.66 1.98-1.32 3.96-2 6h-2c-1.06-3.87-0.971-5.99 0.625-9.66 0.373-0.87 0.747-1.74 1.13-2.64 0.41-0.912 0.821-1.82 1.24-2.76 0.414-0.939 0.829-1.88 1.26-2.85 4.63-10.3 9.84-20.8 17.7-29.1z" fill="#7F2572"/>
<path transform="translate(760,441)" d="m0 0c-0.0651 2.02-0.13 4.04-0.195 6.05 0.012 2.18 0.012 2.18 2.2 3.95h-5c-0.701 3.15-1 5.73-1 9-2 3-2 3-4.62 3.69-0.784 0.103-1.57 0.206-2.38 0.312 0.99 0.33 1.98 0.66 3 1-1.33 2.67-2.67 5.33-4 8h-3c0.186-0.639 0.371-1.28 0.562-1.94 0.217-1.02 0.217-1.02 0.438-2.06-0.33-0.33-0.66-0.66-1-1-0.0408-2-0.0425-4 0-6h4v-8h2c0.33-0.99 0.66-1.98 1-3h4v-2h-7v-7c3.77-2.56 6.67-1.83 11-1z" fill="#7F2571"/>
<path transform="translate(793,418)" d="m0 0c2 2 2 2 2 3h2c-0.66 1.32-1.32 2.64-2 4h-2c-0.0928 0.897-0.0928 0.897-0.188 1.81-1.16 3.12-2.91 3.64-5.81 5.19-1.03 0.701-2.06 1.4-3.12 2.12-2.88 1.88-2.88 1.88-5.88 2.88v2h-2c-0.33-0.66-0.66-1.32-1-2h-2v2c-1.98-0.66-3.96-1.32-6-2 1.81-1.06 1.81-1.06 4-2 0.99 0.33 1.98 0.66 3 1v-2c1.32-0.33 2.64-0.66 4-1l-4-2v-2c1.98-0.33 3.96-0.66 6-1-0.99-0.66-1.98-1.32-3-2h2v-2c1.11-0.0825 2.23-0.165 3.38-0.25 3.68-0.329 3.68-0.329 5.06-2.81 0.186-0.639 0.371-1.28 0.562-1.94l2 1c0.99-0.66 1.98-1.32 3-2z" fill="#7F2672"/>
<path transform="translate(730,458)" d="m0 0h2c-0.33 1.98-0.66 3.96-1 6 0.99-0.33 1.98-0.66 3-1 1.17 4.38 1.09 6.83-1 11-1.32-0.66-2.64-1.32-4-2-0.33 2.31-0.66 4.62-1 7h-2c-2-3-2-3-1.88-5.56 1.36-5.35 3.41-10.5 5.88-15.4z" fill="#7F2571"/>
<path transform="translate(923,442)" d="m0 0h7c-0.66 1.32-1.32 2.64-2 4 0.66 0.66 1.32 1.32 2 2-0.99 1.49-0.99 1.49-2 3v2h2v2c1.32-0.33 2.64-0.66 4-1v3c-1.61-0.0873-3.21-0.196-4.81-0.312-1.34-0.087-1.34-0.087-2.71-0.176-2.83-0.584-3.81-1.18-5.48-3.51-0.188-3.19-0.188-3.19 0-6h2v-5z" fill="#7F2270"/>
<path transform="translate(867,421)" d="m0 0c2.48 0.495 2.48 0.495 5 1v5h6v-3c2.31 0.33 4.62 0.66 7 1-0.99 0.495-0.99 0.495-2 1v2h-6v6h-2v-2h-2v-2h-4c-0.66-2.97-1.32-5.94-2-9z" fill="#7F2270"/>
<path transform="translate(1060 546)" d="m0 0c0.908 0.0825 1.82 0.165 2.75 0.25-1.37 3.16-1.99 3.99-5 6-6.65 1.77-13.2 2.22-20 2 0.33-0.99 0.66-1.98 1-3 1.14 0.0174 1.14 0.0174 2.3 0.0352 0.994 0.00902 1.99 0.018 3.01 0.0273 0.986 0.0116 1.97 0.0232 2.99 0.0352 2.8 0.0256 2.8 0.0256 5.7-1.1 0.598-0.681 1.2-1.36 1.81-2.06 2.19-1.94 2.19-1.94 5.44-2.19z" fill="#7F2672"/>
<path transform="translate(1221,548)" d="m0 0c0.33 0.99 0.66 1.98 1 3h-2c0.33 0.66 0.66 1.32 1 2 0.33 0.99 0.66 1.98 1 3h-2v2h-2v2h-2c-0.302-7.85-0.302-7.85 2-11 0.99-0.33 1.98-0.66 3-1z" fill="#7F2571"/>
<path transform="translate(1030,218)" d="m0 0c6.6 0.33 13.2 0.66 20 1-2 2-2 2-3.92 2.16-0.749-0.0322-1.5-0.0645-2.27-0.0977-3.11-0.0853-5.63 0.0675-8.75 0.562-1.01 0.124-2.02 0.248-3.06 0.375-0.66-0.66-1.32-1.32-2-2v-2z" fill="#89217D"/>
<path transform="translate(1278,517)" d="m0 0h3c-0.33 2.64-0.66 5.28-1 8-0.99 0.33-1.98 0.66-3 1-0.125-6.75-0.125-6.75 1-9z" fill="#7F2270"/>
<path transform="translate(1063,524)" d="m0 0c-0.33 1.65-0.66 3.3-1 5-2.31-0.33-4.62-0.66-7-1v-3c5.75-1 5.75-1 8-1z" fill="#7F2672"/>
</svg>
